<mxfile host="Electron" agent="Mozilla/5.0 (Windows NT 10.0; Win64; x64) AppleWebKit/537.36 (KHTML, like Gecko) draw.io/24.7.8 Chrome/128.0.6613.36 Electron/32.0.1 Safari/537.36" version="24.7.8">
  <diagram name="Page-1" id="FjFn__Gsr1lztoAYHiZa">
    <mxGraphModel dx="1728" dy="997" grid="1" gridSize="10" guides="1" tooltips="1" connect="1" arrows="1" fold="1" page="1" pageScale="1" pageWidth="850" pageHeight="1100" math="0" shadow="0">
      <root>
        <mxCell id="0" />
        <mxCell id="1" parent="0" />
        <mxCell id="ZbZHTQmdUqKYcLgL07-0-26" style="edgeStyle=orthogonalEdgeStyle;rounded=0;orthogonalLoop=1;jettySize=auto;html=1;entryX=0.5;entryY=1;entryDx=0;entryDy=0;fillColor=#fff2cc;strokeColor=#d6b656;" edge="1" parent="1" source="ZbZHTQmdUqKYcLgL07-0-1" target="ZbZHTQmdUqKYcLgL07-0-11">
          <mxGeometry relative="1" as="geometry">
            <Array as="points">
              <mxPoint x="270" y="100" />
              <mxPoint x="270" y="380" />
              <mxPoint x="690" y="380" />
            </Array>
          </mxGeometry>
        </mxCell>
        <mxCell id="ZbZHTQmdUqKYcLgL07-0-27" value="&lt;pre&gt;read_translations()&lt;/pre&gt;" style="edgeLabel;html=1;align=center;verticalAlign=middle;resizable=0;points=[];labelBorderColor=#D6B656;textShadow=0;labelBackgroundColor=#FFF2CC;spacingLeft=2;spacingRight=2;" vertex="1" connectable="0" parent="ZbZHTQmdUqKYcLgL07-0-26">
          <mxGeometry x="0.8689" y="1" relative="1" as="geometry">
            <mxPoint x="-159" y="3" as="offset" />
          </mxGeometry>
        </mxCell>
        <mxCell id="ZbZHTQmdUqKYcLgL07-0-1" value="&lt;b&gt;Translations Source File &lt;br&gt;(.md)&lt;/b&gt;" style="html=1;whiteSpace=wrap;dashed=1;strokeColor=#9673A6;" vertex="1" parent="1">
          <mxGeometry x="330" y="80" width="180" height="40" as="geometry" />
        </mxCell>
        <mxCell id="ZbZHTQmdUqKYcLgL07-0-24" style="edgeStyle=orthogonalEdgeStyle;rounded=0;orthogonalLoop=1;jettySize=auto;html=1;entryX=0.5;entryY=0;entryDx=0;entryDy=0;fillColor=#fff2cc;strokeColor=#d6b656;" edge="1" parent="1" source="ZbZHTQmdUqKYcLgL07-0-2" target="ZbZHTQmdUqKYcLgL07-0-11">
          <mxGeometry relative="1" as="geometry" />
        </mxCell>
        <mxCell id="ZbZHTQmdUqKYcLgL07-0-25" value="&lt;pre&gt;find_translations()&lt;/pre&gt;" style="edgeLabel;html=1;align=center;verticalAlign=middle;resizable=0;points=[];labelBorderColor=#D6B656;textShadow=0;labelBackgroundColor=#FFF2CC;spacingLeft=2;spacingRight=2;" vertex="1" connectable="0" parent="ZbZHTQmdUqKYcLgL07-0-24">
          <mxGeometry x="-0.2125" relative="1" as="geometry">
            <mxPoint y="47" as="offset" />
          </mxGeometry>
        </mxCell>
        <mxCell id="ZbZHTQmdUqKYcLgL07-0-30" style="edgeStyle=orthogonalEdgeStyle;rounded=0;orthogonalLoop=1;jettySize=auto;html=1;entryX=1;entryY=0.5;entryDx=0;entryDy=0;exitX=1;exitY=0.5;exitDx=0;exitDy=0;fillColor=#fff2cc;strokeColor=#d6b656;" edge="1" parent="1" source="ZbZHTQmdUqKYcLgL07-0-2" target="ZbZHTQmdUqKYcLgL07-0-11">
          <mxGeometry relative="1" as="geometry">
            <mxPoint x="770" y="110.00000000000023" as="sourcePoint" />
            <mxPoint x="770" y="310" as="targetPoint" />
            <Array as="points">
              <mxPoint x="810" y="100" />
              <mxPoint x="810" y="300" />
            </Array>
          </mxGeometry>
        </mxCell>
        <mxCell id="ZbZHTQmdUqKYcLgL07-0-31" value="&lt;pre&gt;translate()&lt;/pre&gt;" style="edgeLabel;html=1;align=center;verticalAlign=middle;resizable=0;points=[];labelBorderColor=#D6B656;textShadow=0;labelBackgroundColor=#FFF2CC;spacingLeft=2;spacingRight=2;" vertex="1" connectable="0" parent="ZbZHTQmdUqKYcLgL07-0-30">
          <mxGeometry x="-0.0786" y="-1" relative="1" as="geometry">
            <mxPoint x="1" y="43" as="offset" />
          </mxGeometry>
        </mxCell>
        <mxCell id="ZbZHTQmdUqKYcLgL07-0-2" value="&lt;b&gt;R scripts&lt;br&gt;(.R)&lt;/b&gt;" style="html=1;whiteSpace=wrap;dashed=1;strokeColor=#9673A6;" vertex="1" parent="1">
          <mxGeometry x="630" y="80" width="120" height="40" as="geometry" />
        </mxCell>
        <mxCell id="ZbZHTQmdUqKYcLgL07-0-7" value="R Session&lt;br&gt;(Runtime)" style="shape=umlFrame;whiteSpace=wrap;html=1;pointerEvents=0;width=130;height=40;fontStyle=1;fillColor=#fff2cc;strokeColor=#D6B656;swimlaneFillColor=none;" vertex="1" parent="1">
          <mxGeometry x="290" y="180" width="680" height="660" as="geometry" />
        </mxCell>
        <mxCell id="ZbZHTQmdUqKYcLgL07-0-12" style="edgeStyle=orthogonalEdgeStyle;rounded=0;orthogonalLoop=1;jettySize=auto;html=1;fillColor=#fff2cc;strokeColor=#d6b656;" edge="1" parent="1" source="ZbZHTQmdUqKYcLgL07-0-8" target="ZbZHTQmdUqKYcLgL07-0-11">
          <mxGeometry relative="1" as="geometry" />
        </mxCell>
        <mxCell id="ZbZHTQmdUqKYcLgL07-0-15" value="&lt;pre&gt;translator()&lt;/pre&gt;" style="edgeLabel;html=1;align=center;verticalAlign=top;resizable=0;points=[];fontFamily=Helvetica;labelPosition=center;verticalLabelPosition=bottom;labelBackgroundColor=#FFF2CC;labelBorderColor=#D6B656;textShadow=0;spacingLeft=2;spacingRight=2;" vertex="1" connectable="0" parent="ZbZHTQmdUqKYcLgL07-0-12">
          <mxGeometry x="-0.2" y="3" relative="1" as="geometry">
            <mxPoint x="8" y="3" as="offset" />
          </mxGeometry>
        </mxCell>
        <mxCell id="ZbZHTQmdUqKYcLgL07-0-8" value="«R6 Class»&lt;br&gt;&lt;b&gt;Translator&lt;/b&gt;" style="html=1;whiteSpace=wrap;" vertex="1" parent="1">
          <mxGeometry x="330" y="280" width="120" height="40" as="geometry" />
        </mxCell>
        <mxCell id="ZbZHTQmdUqKYcLgL07-0-28" style="rounded=0;orthogonalLoop=1;jettySize=auto;html=1;exitX=0;exitY=0.5;exitDx=0;exitDy=0;entryX=0.5;entryY=1;entryDx=0;entryDy=0;fillColor=#fff2cc;strokeColor=#d6b656;" edge="1" parent="1" source="ZbZHTQmdUqKYcLgL07-0-11" target="ZbZHTQmdUqKYcLgL07-0-1">
          <mxGeometry relative="1" as="geometry">
            <mxPoint x="390" y="100" as="targetPoint" />
          </mxGeometry>
        </mxCell>
        <mxCell id="ZbZHTQmdUqKYcLgL07-0-29" value="&lt;pre&gt;write_translations()&lt;/pre&gt;" style="edgeLabel;html=1;align=center;verticalAlign=middle;resizable=0;points=[];labelBorderColor=#D6B656;textShadow=0;labelBackgroundColor=#FFF2CC;spacingLeft=2;spacingRight=2;" vertex="1" connectable="0" parent="ZbZHTQmdUqKYcLgL07-0-28">
          <mxGeometry x="-0.2604" y="2" relative="1" as="geometry">
            <mxPoint x="-10" y="-4" as="offset" />
          </mxGeometry>
        </mxCell>
        <mxCell id="ZbZHTQmdUqKYcLgL07-0-11" value="«Object»&lt;br&gt;&lt;b&gt;Translator&lt;/b&gt;" style="html=1;whiteSpace=wrap;" vertex="1" parent="1">
          <mxGeometry x="630" y="280" width="120" height="40" as="geometry" />
        </mxCell>
        <mxCell id="ZbZHTQmdUqKYcLgL07-0-19" value="R Project&lt;br&gt;(Source files)" style="shape=umlFrame;whiteSpace=wrap;html=1;pointerEvents=0;width=130;height=40;fontStyle=1;fillColor=#e1d5e7;strokeColor=#9673a6;" vertex="1" parent="1">
          <mxGeometry x="290" y="20" width="680" height="120" as="geometry" />
        </mxCell>
        <mxCell id="ZbZHTQmdUqKYcLgL07-0-63" style="edgeStyle=orthogonalEdgeStyle;rounded=0;orthogonalLoop=1;jettySize=auto;html=1;fillColor=#f8cecc;strokeColor=#b85450;" edge="1" parent="1" source="ZbZHTQmdUqKYcLgL07-0-35" target="ZbZHTQmdUqKYcLgL07-0-62">
          <mxGeometry relative="1" as="geometry" />
        </mxCell>
        <mxCell id="ZbZHTQmdUqKYcLgL07-0-35" value="&lt;pre style=&quot;font-size: 11px;&quot;&gt;compare_translations()&lt;/pre&gt;" style="html=1;whiteSpace=wrap;shadow=0;fillColor=#f8cecc;strokeColor=#b85450;fontSize=11;" vertex="1" parent="1">
          <mxGeometry x="390" y="606" width="150" height="40" as="geometry" />
        </mxCell>
        <mxCell id="ZbZHTQmdUqKYcLgL07-0-58" style="rounded=0;orthogonalLoop=1;jettySize=auto;html=1;entryX=0.25;entryY=1;entryDx=0;entryDy=0;exitX=1;exitY=0.5;exitDx=0;exitDy=0;dashed=1;fillColor=#fff2cc;strokeColor=#d6b656;endArrow=classic;endFill=1;" edge="1" parent="1" source="ZbZHTQmdUqKYcLgL07-0-41" target="ZbZHTQmdUqKYcLgL07-0-11">
          <mxGeometry relative="1" as="geometry" />
        </mxCell>
        <mxCell id="ZbZHTQmdUqKYcLgL07-0-41" value="&lt;pre style=&quot;font-size: 11px;&quot;&gt;find_translations()&lt;/pre&gt;" style="html=1;whiteSpace=wrap;shadow=0;fillColor=#fff2cc;strokeColor=#d6b656;fontSize=11;" vertex="1" parent="1">
          <mxGeometry x="390" y="550" width="150" height="40" as="geometry" />
        </mxCell>
        <mxCell id="ZbZHTQmdUqKYcLgL07-0-66" style="edgeStyle=orthogonalEdgeStyle;rounded=0;orthogonalLoop=1;jettySize=auto;html=1;entryX=0;entryY=0.5;entryDx=0;entryDy=0;exitX=0;exitY=0.5;exitDx=0;exitDy=0;" edge="1" parent="1" source="ZbZHTQmdUqKYcLgL07-0-42" target="ZbZHTQmdUqKYcLgL07-0-41">
          <mxGeometry relative="1" as="geometry">
            <Array as="points">
              <mxPoint x="350" y="510" />
              <mxPoint x="350" y="570" />
            </Array>
          </mxGeometry>
        </mxCell>
        <mxCell id="ZbZHTQmdUqKYcLgL07-0-67" style="edgeStyle=orthogonalEdgeStyle;rounded=0;orthogonalLoop=1;jettySize=auto;html=1;entryX=0;entryY=0.5;entryDx=0;entryDy=0;exitX=0;exitY=0.5;exitDx=0;exitDy=0;" edge="1" parent="1" source="ZbZHTQmdUqKYcLgL07-0-42" target="ZbZHTQmdUqKYcLgL07-0-35">
          <mxGeometry relative="1" as="geometry">
            <Array as="points">
              <mxPoint x="350" y="510" />
              <mxPoint x="350" y="626" />
            </Array>
          </mxGeometry>
        </mxCell>
        <mxCell id="ZbZHTQmdUqKYcLgL07-0-42" value="&lt;pre style=&quot;font-size: 11px;&quot;&gt;update_translations()&lt;/pre&gt;" style="html=1;whiteSpace=wrap;shadow=0;fillColor=#f8cecc;strokeColor=#b85450;fontSize=11;" vertex="1" parent="1">
          <mxGeometry x="375" y="490" width="145" height="40" as="geometry" />
        </mxCell>
        <mxCell id="ZbZHTQmdUqKYcLgL07-0-68" style="rounded=0;orthogonalLoop=1;jettySize=auto;html=1;entryX=0.75;entryY=1;entryDx=0;entryDy=0;exitX=0.5;exitY=0;exitDx=0;exitDy=0;fillColor=#fff2cc;strokeColor=#d6b656;dashed=1;" edge="1" parent="1" source="ZbZHTQmdUqKYcLgL07-0-49" target="ZbZHTQmdUqKYcLgL07-0-11">
          <mxGeometry relative="1" as="geometry" />
        </mxCell>
        <mxCell id="ZbZHTQmdUqKYcLgL07-0-49" value="&lt;pre style=&quot;font-size: 11px;&quot;&gt;update_accept()&lt;/pre&gt;" style="html=1;whiteSpace=wrap;shadow=0;fillColor=#f8cecc;strokeColor=#b85450;fontSize=11;" vertex="1" parent="1">
          <mxGeometry x="810" y="540" width="120" height="39" as="geometry" />
        </mxCell>
        <mxCell id="ZbZHTQmdUqKYcLgL07-0-50" value="&lt;pre style=&quot;font-size: 11px;&quot;&gt;update_reject()&lt;/pre&gt;" style="html=1;whiteSpace=wrap;shadow=0;fillColor=#f8cecc;strokeColor=#b85450;fontSize=11;" vertex="1" parent="1">
          <mxGeometry x="810" y="660" width="120" height="40" as="geometry" />
        </mxCell>
        <mxCell id="ZbZHTQmdUqKYcLgL07-0-54" value="Not Yet Implemented" style="shape=umlFrame;whiteSpace=wrap;html=1;pointerEvents=0;width=130;height=40;fontStyle=1;fillColor=#f8cecc;strokeColor=#b85450;swimlaneFillColor=none;dashed=1;" vertex="1" parent="1">
          <mxGeometry x="310" y="420" width="640" height="400" as="geometry" />
        </mxCell>
        <mxCell id="ZbZHTQmdUqKYcLgL07-0-59" value="Compare an existing Translator object to a &lt;br&gt;new &lt;i&gt;transient &lt;/i&gt;one and perform these checks.&lt;br&gt;&lt;ul&gt;&lt;li&gt;Check if existing header fields must be modified.&lt;/li&gt;&lt;li&gt;Check if existing header fields must be dropped.&lt;/li&gt;&lt;li&gt;Check if new header fields must be added.&lt;/li&gt;&lt;li&gt;Check if existing hash(es) must be dropped.&lt;/li&gt;&lt;li&gt;Check if new hash(es) must be added.&lt;/li&gt;&lt;/ul&gt;" style="shape=note;whiteSpace=wrap;html=1;backgroundOutline=1;darkOpacity=0.05;align=left;spacingLeft=5;spacingRight=5;fillColor=#f8cecc;strokeColor=#b85450;" vertex="1" parent="1">
          <mxGeometry x="330" y="670" width="310" height="130" as="geometry" />
        </mxCell>
        <mxCell id="ZbZHTQmdUqKYcLgL07-0-64" style="rounded=0;orthogonalLoop=1;jettySize=auto;html=1;entryX=0;entryY=0.5;entryDx=0;entryDy=0;exitX=1;exitY=0.5;exitDx=0;exitDy=0;fillColor=#f8cecc;strokeColor=#b85450;" edge="1" parent="1" source="ZbZHTQmdUqKYcLgL07-0-62" target="ZbZHTQmdUqKYcLgL07-0-50">
          <mxGeometry relative="1" as="geometry" />
        </mxCell>
        <mxCell id="ZbZHTQmdUqKYcLgL07-0-65" style="rounded=0;orthogonalLoop=1;jettySize=auto;html=1;entryX=0;entryY=0.5;entryDx=0;entryDy=0;exitX=1;exitY=0.5;exitDx=0;exitDy=0;fillColor=#f8cecc;strokeColor=#b85450;" edge="1" parent="1" source="ZbZHTQmdUqKYcLgL07-0-62" target="ZbZHTQmdUqKYcLgL07-0-49">
          <mxGeometry relative="1" as="geometry" />
        </mxCell>
        <mxCell id="ZbZHTQmdUqKYcLgL07-0-62" value="&lt;pre style=&quot;font-size: 11px;&quot;&gt;update_show()&lt;/pre&gt;" style="html=1;whiteSpace=wrap;shadow=0;fillColor=#f8cecc;strokeColor=#b85450;fontSize=11;" vertex="1" parent="1">
          <mxGeometry x="642.5" y="605" width="95" height="42" as="geometry" />
        </mxCell>
        <mxCell id="ZbZHTQmdUqKYcLgL07-0-69" value="&lt;b&gt;Other files&lt;/b&gt;" style="html=1;whiteSpace=wrap;dashed=1;strokeColor=#9673A6;glass=0;rounded=0;shadow=0;fillColor=#f5f5f5;fontColor=#333333;" vertex="1" parent="1">
          <mxGeometry x="870" y="80" width="80" height="40" as="geometry" />
        </mxCell>
        <mxCell id="ZbZHTQmdUqKYcLgL07-0-71" style="edgeStyle=orthogonalEdgeStyle;rounded=0;orthogonalLoop=1;jettySize=auto;html=1;" edge="1" parent="1" source="ZbZHTQmdUqKYcLgL07-0-70" target="ZbZHTQmdUqKYcLgL07-0-7">
          <mxGeometry relative="1" as="geometry" />
        </mxCell>
        <mxCell id="ZbZHTQmdUqKYcLgL07-0-75" value="&lt;pre&gt;library()&lt;br&gt;`::`()&lt;/pre&gt;" style="edgeLabel;html=1;align=center;verticalAlign=middle;resizable=0;points=[];labelBorderColor=#D6B656;labelBackgroundColor=#FFF2CC;labelPosition=center;verticalLabelPosition=middle;" vertex="1" connectable="0" parent="ZbZHTQmdUqKYcLgL07-0-71">
          <mxGeometry x="-0.05" y="2" relative="1" as="geometry">
            <mxPoint x="-2" y="2" as="offset" />
          </mxGeometry>
        </mxCell>
        <mxCell id="ZbZHTQmdUqKYcLgL07-0-70" value="&lt;div&gt;&lt;font&gt;transltr&lt;/font&gt;&lt;/div&gt;" style="shape=folder;fontStyle=1;spacingTop=10;tabWidth=40;tabHeight=14;tabPosition=left;html=1;whiteSpace=wrap;fontFamily=Helvetica;" vertex="1" parent="1">
          <mxGeometry x="90" y="485" width="70" height="50" as="geometry" />
        </mxCell>
        <mxCell id="ZbZHTQmdUqKYcLgL07-0-72" value="CRAN" style="ellipse;shape=cloud;whiteSpace=wrap;html=1;fillColor=#dae8fc;strokeColor=#6c8ebf;fontStyle=1;fontSize=16;" vertex="1" parent="1">
          <mxGeometry x="50" y="290" width="120" height="80" as="geometry" />
        </mxCell>
        <mxCell id="ZbZHTQmdUqKYcLgL07-0-73" style="edgeStyle=orthogonalEdgeStyle;rounded=0;orthogonalLoop=1;jettySize=auto;html=1;entryX=0;entryY=0;entryDx=20;entryDy=0;entryPerimeter=0;" edge="1" parent="1" source="ZbZHTQmdUqKYcLgL07-0-72" target="ZbZHTQmdUqKYcLgL07-0-70">
          <mxGeometry relative="1" as="geometry" />
        </mxCell>
        <mxCell id="ZbZHTQmdUqKYcLgL07-0-76" value="&lt;pre&gt;install.packages(&quot;transltr&quot;)&lt;/pre&gt;" style="edgeLabel;html=1;align=center;verticalAlign=middle;resizable=0;points=[];labelBackgroundColor=#FFF2CC;labelBorderColor=#D6B656;spacingLeft=2;spacingRight=2;" vertex="1" connectable="0" parent="ZbZHTQmdUqKYcLgL07-0-73">
          <mxGeometry x="-0.1897" relative="1" as="geometry">
            <mxPoint as="offset" />
          </mxGeometry>
        </mxCell>
        <mxCell id="ZbZHTQmdUqKYcLgL07-0-77" value="&lt;h1 style=&quot;text-align: justify; margin-top: 0px;&quot;&gt;Architecture&lt;/h1&gt;&lt;div style=&quot;text-align: justify;&quot;&gt;An overview of the software architecture of package transltr. Only high-level (exported) features for users are shown.&lt;/div&gt;&lt;div style=&quot;text-align: justify;&quot;&gt;&lt;br&gt;&lt;/div&gt;&lt;div style=&quot;text-align: justify;&quot;&gt;Last update: September 23&lt;sup&gt;rd&lt;/sup&gt;, 2024&lt;/div&gt;" style="text;html=1;whiteSpace=wrap;overflow=hidden;rounded=0;fillColor=none;" vertex="1" parent="1">
          <mxGeometry x="20" y="10" width="220" height="130" as="geometry" />
        </mxCell>
        <mxCell id="ZbZHTQmdUqKYcLgL07-0-79" value="Prod" style="ellipse;whiteSpace=wrap;html=1;aspect=fixed;fillColor=#d5e8d4;strokeColor=#82b366;fontStyle=1;fontSize=10;" vertex="1" parent="1">
          <mxGeometry x="830" y="190" width="30" height="30" as="geometry" />
        </mxCell>
        <mxCell id="ZbZHTQmdUqKYcLgL07-0-88" value="Prod" style="ellipse;whiteSpace=wrap;html=1;aspect=fixed;fillColor=#d5e8d4;strokeColor=#82b366;fontStyle=1;fontSize=10;" vertex="1" parent="1">
          <mxGeometry x="580" y="340" width="30" height="30" as="geometry" />
        </mxCell>
      </root>
    </mxGraphModel>
  </diagram>
</mxfile>
